<?xml version="1.0" encoding="utf-8"?>
<!-- Generator: Adobe Illustrator 25.2.1, SVG Export Plug-In . SVG Version: 6.00 Build 0)  -->
<svg version="1.1" id="Layer_1" xmlns="http://www.w3.org/2000/svg" xmlns:xlink="http://www.w3.org/1999/xlink" x="0px" y="0px"
	 viewBox="0 0 207.3 173" style="enable-background:new 0 0 207.3 173;" xml:space="preserve">
<style type="text/css">
	.st0{fill:#FFFFFF;}
</style>
<g id="Layer_2_1_">
	<g id="Layer_1-2">
		<path class="st0" d="M204.3,24c-2.3-2.5-5.5-4-8.9-4H47.8l-0.7-6.4l0,0c-0.2-2-2-3.6-4-3.6H27.4C25.2,2.6,17.4-1.6,10,0.6
			S-1.6,10.6,0.6,18s10,11.6,17.4,9.4c4.5-1.3,8.1-4.9,9.4-9.4h12.2l0.7,6.4l10,90l0,0l2,17.9c0.1,1.2,0.5,2.4,1,3.5
			c-10,3-15.7,13.7-12.7,23.7c3,10,13.7,15.7,23.7,12.7c10-3,15.7-13.7,12.7-23.7c-0.6-2-1.5-3.8-2.7-5.5h90.5
			c-6.1,8.6-4.1,20.4,4.5,26.5s20.4,4.1,26.5-4.5s4.1-20.4-4.5-26.5c-3.2-2.3-7.1-3.5-11-3.5h-116c-2,0-3.8-1.5-4-3.6L58.7,118H180
			c10.2,0,18.8-7.7,19.9-17.8l7.4-66.9C207.7,29.9,206.6,26.5,204.3,24z M14,20c-3.3,0-6-2.7-6-6s2.7-6,6-6s6,2.7,6,6S17.3,20,14,20
			z M58.7,165c-6.1,0-11-4.9-11-11s4.9-11,11-11s11,4.9,11,11S64.8,165,58.7,165z M191.1,154c0,6.1-4.9,11-11,11s-11-4.9-11-11
			s4.9-11,11-11S191.1,147.9,191.1,154z M199.3,32.4l-7.4,66.9c-0.7,6.1-5.8,10.6-11.9,10.7H57.8l-1.2-10.7l0,0L48.7,28h146.6
			c2.2,0,4,1.8,4,4C199.4,32.1,199.3,32.3,199.3,32.4L199.3,32.4z"/>
	</g>
</g>
</svg>
