<svg xmlns="http://www.w3.org/2000/svg" xmlns:xlink="http://www.w3.org/1999/xlink" version="1.1" id="Layer_1" x="0px" y="0px" viewBox="0 0 104 104" style="enable-background:new 0 0 104 104;" xml:space="preserve">
<style type="text/css">
	.st0{fill:#FFFFFF;}
</style>
<title>cv-icon</title>
<g id="Layer_2_1_">
	<g id="Layer_1-2">
		<path class="st0" d="M62.1,49.6C62.1,49.6,62.1,49.6,62.1,49.6c1,0,1.8-0.8,1.7-1.7s-0.8-1.7-1.7-1.7s-1.7,0.8-1.7,1.7    C60.4,48.8,61.1,49.6,62.1,49.6z"/>
		<path class="st0" d="M43.5,47.9L43.5,47.9c0-1-0.8-1.7-1.7-1.7S40,46.9,40,47.9s0.8,1.7,1.7,1.7S43.5,48.8,43.5,47.9z"/>
		<path class="st0" d="M59.9,62.2c-0.4-0.5-1-0.5-1.5-0.2c-3.8,3-9.1,3-12.8,0c-0.5-0.4-1.1-0.3-1.5,0.2c-0.4,0.5-0.3,1.1,0.2,1.5    c4.5,3.6,10.9,3.6,15.4,0C60.2,63.3,60.2,62.7,59.9,62.2z"/>
		<path class="st0" d="M8.3,0C3.7,0,0,3.7,0,8.3l0,87.4c0,0,0,0,0,0c0,4.6,3.7,8.3,8.3,8.3h87.4c0,0,0,0,0,0c4.6,0,8.3-3.7,8.3-8.3    V8.3c0,0,0,0,0,0c0-4.6-3.7-8.3-8.3-8.3L8.3,0C8.3,0,8.3,0,8.3,0z M63.5,28.6L63.5,28.6l-1.9,7.2l-2.2-2.7c-3.4-4.1-8.8-6-14-4.9    l-1.3,0.3c-4.7,1-9.5-0.3-13-3.6L31,24.8h0.2c2.9,0.4,5.8,0,8.4-1.3l9.5-4.5c3.3-1.6,7.2-1.2,10.1,1C63.6,23.2,63.9,27,63.5,28.6    L63.5,28.6z M31,45.5v6.4l-0.5,2.9c-2-0.7-3.3-2.5-3.3-4.6C27.2,48,28.8,46,31,45.5z M71,51.5l-8,5.7c-2.1-1.4-4.6-2.1-7.1-2.1H48    c-2.5,0-5,0.7-7.1,2.1L33,51.5v-7.1c0-1.8,0.3-3.6,0.8-5.4h27.9l9.2,6V51.5z M30.2,27c3.9,3.4,9.2,4.7,14.3,3.6l1.3-0.3    c4.4-1,9.1,0.7,11.9,4.2l2.1,2.5h-26L30.2,27z M67,29.3c0.1,0,0.1,0,0.2,0c2.7,0.2,4.7,2.5,4.5,5.2l-0.7,8l-7.8-5l0.2-0.6l2-7.4    h0.1C66,29.4,66.5,29.3,67,29.3z M73,45.5c1.6,0.4,3,1.6,3.5,3.2c0.9,2.5-0.5,5.3-3,6.1L73,51.9V45.5z M73,63.9    c0.5,3.2-0.4,6.5-2.6,9l-1.1,1.3c-2,2.3-4.4,4.1-7.2,5.2c-6.5,2.7-13.8,2.7-20.3,0c-2.8-1.2-5.2-3-7.2-5.2l-1.1-1.3    c-2.1-2.5-3.1-5.8-2.5-9l1.7-10l7.6,5.5c0.4,0.3,0.9,0.3,1.2,0c1.9-1.4,4.2-2.1,6.5-2.1h8c2.3,0,4.6,0.7,6.5,2.1    c0.4,0.3,0.9,0.3,1.2,0l7.5-5.4L73,63.9L73,63.9z M71.4,74.9c7.5,0.4,13.3,6.5,13.3,14v11H19.2v-11c0-7.5,5.8-13.6,13.3-14    l0.6,0.6c2.2,2.5,4.9,4.5,7.9,5.8c7,2.9,14.9,2.9,21.9,0c3.1-1.3,5.8-3.3,7.9-5.8L71.4,74.9L71.4,74.9z M4.2,8.3    C4.2,6,6,4.2,8.3,4.2h87.4c2.3,0,4.2,1.9,4.2,4.2v87.4c0,2.3-1.9,4.2-4.2,4.2h-8.8v-11c0-8-5.9-14.8-13.8-15.9    c1.9-2.8,2.6-6.2,2-9.5L73.9,57c2.6-0.7,4.5-2.9,4.9-5.5c0.6-3.8-1.9-7.3-5.7-7.9l0.7-8.7c0.1-0.6,0-1.2-0.1-1.8    c-0.7-3.8-4.3-6.3-8.1-5.6c0-2.4-1.1-6-5.4-9c-3.5-2.6-8.2-3.1-12.2-1.2l-9.5,4.5c-2.2,1.1-4.8,1.4-7.2,1.1L28,22.3    c-0.2,0-0.4,0-0.6,0.1c-0.5,0.2-0.8,0.8-0.5,1.3L32,38c-0.6,1.8-0.9,3.6-1,5.4c-2.7,0.4-4.9,2.3-5.7,5c-1,3.7,1.1,7.5,4.8,8.5    L29,63.6c-0.6,3.3,0.1,6.7,2,9.4c-7.9,1.1-13.8,7.9-13.8,15.8v11H8.3c-2.3,0-4.2-1.9-4.2-4.2V8.3z"/>
	</g>
</g>
</svg>