<?xml version="1.0" encoding="utf-8"?>
<!-- Generator: Adobe Illustrator 25.2.1, SVG Export Plug-In . SVG Version: 6.00 Build 0)  -->
<svg version="1.1" id="Layer_1" xmlns="http://www.w3.org/2000/svg" xmlns:xlink="http://www.w3.org/1999/xlink" x="0px" y="0px"
	 viewBox="0 0 200 200" style="enable-background:new 0 0 200 200;" xml:space="preserve">
<style type="text/css">
	.st0{fill:#FFFFFF;}
</style>
<g id="Layer_2_1_">
	<g id="Layer_1-2">
		<path class="st0" d="M80.4,88.7c-1.8,0-3.3,1.5-3.3,3.3c0,1.8,1.5,3.3,3.3,3.3c1.8,0,3.3-1.5,3.3-3.3c0,0,0,0,0,0
			C83.8,90.2,82.3,88.7,80.4,88.7z"/>
		<path class="st0" d="M119.6,88.7c-1.8,0-3.3,1.5-3.3,3.3c0,1.8,1.5,3.3,3.3,3.3c1.8,0,3.3-1.5,3.3-3.3c0,0,0,0,0,0
			C122.9,90.2,121.4,88.7,119.6,88.7z"/>
		<path class="st0" d="M85.2,122.5c8.7,6.8,20.9,6.8,29.6,0c0.9-0.7,1-1.9,0.3-2.8c-0.7-0.9-1.9-1-2.8-0.3c-7.2,5.7-17.4,5.7-24.7,0
			c-0.9-0.7-2.1-0.5-2.8,0.3C84.2,120.5,84.3,121.8,85.2,122.5z"/>
		<path class="st0" d="M132.8,85l-0.4-0.2c-4.2-2.1-8.8-3.1-13.5-3.1h-0.3c-4.5,0-9,1.1-13.1,3.1c-3.1-2.8-7.8-2.8-11-0.1
			c-8.5-4.1-18.5-4-26.9,0.3l-0.4,0.2l-0.1,0.4c-2.5,7.9,1.8,16.3,9.7,18.9c7.9,2.5,16.3-1.8,18.9-9.7c0.5-1.5,0.7-3,0.7-4.6
			c0-1.4-0.2-2.7-0.6-4c2.4-2.1,6-2,8.4,0.1c-2.1,8,2.6,16.2,10.6,18.4c1.3,0.3,2.6,0.5,3.9,0.5h0.2c8.3-0.1,14.9-6.9,14.9-15.1
			c0-1.6-0.3-3.1-0.8-4.6L132.8,85z M81.3,103.2c-7.2,0-13-5.8-13-13c0-1.2,0.2-2.4,0.5-3.6c7.9-3.8,17.1-3.8,25,0
			c2,6.9-2,14.1-8.9,16.1C83.8,103,82.6,103.1,81.3,103.2L81.3,103.2z M127.9,99.2c-2.4,2.5-5.7,3.9-9.2,3.9h-0.1
			c-7.2,0-13-5.8-13-13c0-1.2,0.2-2.3,0.5-3.5c7.9-3.9,17.1-4,25-0.2c0.3,1.2,0.5,2.4,0.6,3.6C131.7,93.5,130.4,96.8,127.9,99.2
			L127.9,99.2z"/>
		<path class="st0" d="M184,0H16C7.2,0,0,7.2,0,16v168c0,8.8,7.2,16,16,16h168c8.8,0,16-7.2,16-16V16C200,7.2,192.8,0,184,0z
			 M59.7,122.8l3.3-19.3L77.5,114c0.7,0.5,1.7,0.5,2.4,0c3.6-2.7,8-4.1,12.6-4.1h15.2c4.5,0,8.9,1.4,12.6,4.1c0.7,0.5,1.7,0.5,2.4,0
			l14.5-10.5l3.3,19.3c1.1,6.2-0.7,12.6-4.8,17.3l-2.2,2.5c-3.8,4.4-8.5,7.8-13.8,10.1c-12.5,5.2-26.5,5.2-39,0
			c-5.3-2.3-10-5.7-13.8-10.1l-2.2-2.5C60.4,135.4,58.6,129,59.7,122.8z M58.6,105.4c-4.9-1.6-7.5-6.9-5.8-11.8
			c1-3.1,3.6-5.4,6.8-6.1v12.2L58.6,105.4z M135,71.1H84.9l4-4.9c5.6-6.8,14.4-9.9,23-8l2.6,0.5c9.8,2.1,19.9-0.5,27.5-7L135,71.1z
			 M136.4,85.4V99l-15.1,11c-4.1-2.6-8.8-4-13.7-4H92.4c-4.9,0-9.6,1.4-13.7,4L63.5,99V86.4l17.7-11.4H135
			C136,78.4,136.5,81.9,136.4,85.4L136.4,85.4z M140.2,47.9c-6.7,6.2-16,8.8-25,6.9l-2.6-0.5c-10-2.1-20.3,1.5-26.8,9.4l-4.2,5.1
			l-3.7-13.9l0,0l0,0c-0.8-2.9-0.2-10.1,8.4-16.2c5.6-4.2,13-5,19.3-2l18.3,8.6c5,2.4,10.7,3.2,16.2,2.4h0.3L140.2,47.9z M78.3,72.2
			l-15.1,9.7L62,66.5c-0.4-5.1,3.4-9.6,8.5-10.1c0.2,0,0.5,0,0.7,0c1,0,2,0.2,2.9,0.5h0.2L78.3,72.2z M140.5,99.8V87.6
			c5,1.1,8.2,6,7.1,11c-0.7,3.2-3,5.8-6.1,6.8L140.5,99.8z M63.7,145.3c4.2,4.8,9.4,8.6,15.3,11.1c13.5,5.7,28.7,5.7,42.1,0
			c5.9-2.5,11.1-6.3,15.3-11.1l1.1-1.3c14.3,0.7,25.6,12.5,25.6,26.9V192H37v-21.1c0-14.4,11.3-26.2,25.6-26.9L63.7,145.3z M192,184
			c0,4.4-3.6,8-8,8h-17v-21.1c0-15.4-11.4-28.5-26.6-30.6c3.6-5.3,5-11.8,3.9-18.2l-2.2-12.7c7.1-2,11.2-9.3,9.2-16.4
			c-1.4-5-5.7-8.8-10.8-9.5c-0.2-3.5-0.8-7-1.9-10.4l9.8-27.6c0.2-0.7,0.1-1.4-0.3-1.9c-0.4-0.5-1.1-0.8-1.8-0.7l-6.6,1
			c-4.7,0.7-9.6,0-13.9-2.1l-18.3-8.6c-7.6-3.6-16.6-2.8-23.4,2.3C75.9,41.1,73.7,48,73.7,52.6c-7.2-1.3-14.2,3.5-15.5,10.7
			c-0.2,1.1-0.3,2.3-0.2,3.5l1.4,16.8c-7.2,1.2-12.1,8-11,15.2c0.8,5.1,4.5,9.2,9.5,10.6l-2.2,12.7c-1.1,6.3,0.3,12.8,3.9,18.2
			C44.4,142.4,33,155.5,33,170.9V192H16c-4.4,0-8-3.6-8-8V16c0-4.4,3.6-8,8-8h168c4.4,0,8,3.6,8,8V184z"/>
	</g>
</g>
</svg>
