<svg xmlns="http://www.w3.org/2000/svg" xmlns:xlink="http://www.w3.org/1999/xlink" viewBox="0 0 363.61 363.61"><defs><style>.logo-icon-cls-1{fill:#fff;}.logo-icon-cls-2{fill:url(#logo-icon-linear-gradient);}</style><linearGradient id="logo-icon-linear-gradient" x1="-32.46" y1="396.07" x2="358.98" y2="4.62" gradientUnits="userSpaceOnUse"><stop offset="0" stop-color="#ff5652"/><stop offset="1" stop-color="#f4ce56"/></linearGradient></defs><title>logo-circle-icon</title><g id="Layer_2" data-name="Layer 2"><g id="final"><circle class="logo-icon-cls-1" cx="181.8" cy="181.8" r="173.8"/><path class="logo-icon-cls-2" d="M292.83,138.35v62.47a48.9,48.9,0,0,1-48.9,48.9H167.14a24.07,24.07,0,0,1-3.61-.27,24.33,24.33,0,0,1-5.06-1.33c-.44-.16-.87-.34-1.3-.53s-.68-.32-1-.48c-.58-.3-1.15-.61-1.7-.94a25,25,0,0,1-4.61-3.61h0l-6.42-6.42-37-37a24.45,24.45,0,0,1,0-34.58l7.7-7.69,37.33-37.33a19.18,19.18,0,0,1,27.14,0h0a19.18,19.18,0,0,1,0,27.14l-29.41,29.41a8.15,8.15,0,0,0,0,11.52l23.54,23.54a8.15,8.15,0,0,0,5.77,2.39h55.93a24.44,24.44,0,0,0,24.44-24.45V158.27a8.15,8.15,0,0,0-8.15-8.15H212.1A18.12,18.12,0,0,1,194,132h0a18.13,18.13,0,0,1,18.12-18.13h56.28a8.26,8.26,0,0,1,1,.06A24.44,24.44,0,0,1,292.83,138.35ZM90,113.87h0a19.2,19.2,0,0,0-19.19,19.2V140A19.19,19.19,0,0,0,90,159.17h0A19.2,19.2,0,0,0,109.17,140v-6.91A19.2,19.2,0,0,0,90,113.87Zm0,135.86h0a19.2,19.2,0,0,0,19.2-19.19v-6.91A19.2,19.2,0,0,0,90,204.43h0a19.2,19.2,0,0,0-19.19,19.2v6.91A19.19,19.19,0,0,0,90,249.73ZM181.8,363.61C81.56,363.61,0,282.05,0,181.8S81.56,0,181.8,0,363.61,81.56,363.61,181.8,282.05,363.61,181.8,363.61ZM181.8,16C90.38,16,16,90.38,16,181.8S90.38,347.61,181.8,347.61,347.61,273.23,347.61,181.8,273.23,16,181.8,16Z"/></g></g></svg>