<svg xmlns="http://www.w3.org/2000/svg" viewBox="0 0 308 236"><defs><style>.portfolio-icon-cls-1{fill:#fff;}</style></defs><title>portfolio-icon</title><g id="Layer_2" data-name="Layer 2"><g id="Layer_1-2" data-name="Layer 1"><path class="portfolio-icon-cls-1" d="M288,28H206V14A14,14,0,0,0,192,0H116a14,14,0,0,0-14,14V28H20A20,20,0,0,0,0,48V216a20,20,0,0,0,20,20H288a20,20,0,0,0,20-20V48A20,20,0,0,0,288,28Zm0,192H20a14.17,14.17,0,0,1-12-6.44V94.61a21.7,21.7,0,0,0,17.71,9.18h96.71v9.87a9.88,9.88,0,0,0,9.87,9.87h43.42a9.88,9.88,0,0,0,9.87-9.87v-9.87h96.71A21.7,21.7,0,0,0,300,94.61v119A14.17,14.17,0,0,1,288,220ZM175.71,80.11H132.29A9.88,9.88,0,0,0,122.42,90v9.87H25.71A17.77,17.77,0,0,1,8,83.12V48A12,12,0,0,1,20,36H288a12,12,0,0,1,12,12V83.12a17.77,17.77,0,0,1-17.71,16.72H185.58V90A9.88,9.88,0,0,0,175.71,80.11ZM181.63,90v23.69a5.93,5.93,0,0,1-5.92,5.92H132.29a5.93,5.93,0,0,1-5.92-5.92V90a5.93,5.93,0,0,1,5.92-5.92h43.42A5.93,5.93,0,0,1,181.63,90ZM106,14A10,10,0,0,1,116,4h76a10,10,0,0,1,10,10V28H106ZM288,228H20a12,12,0,0,1-11.22-7.77A18.46,18.46,0,0,0,20,224H288a18.46,18.46,0,0,0,11.22-3.77A12,12,0,0,1,288,228Z"/></g></g></svg>