<svg xmlns="http://www.w3.org/2000/svg" xmlns:xlink="http://www.w3.org/1999/xlink" viewBox="0 0 108 108"><defs><style>.kj-logo-circle-cls-1{fill:#fff;}.kj-logo-circle-cls-2{fill:url(#kj-logo-gradient);}.kj-logo-circle-cls-3{fill:url(#radial-gradient);}.kj-logo-circle-cls-4{fill:url(#kj-logo-gradient-2);}.kj-logo-circle-cls-5{fill:#b1052e;}.kj-logo-circle-cls-6{fill:url(#radial-gradient-2);}</style><linearGradient id="kj-logo-gradient" x1="-150.19" y1="710.21" x2="-42.19" y2="710.21" gradientTransform="translate(-516.21 488.18) rotate(-135)" gradientUnits="userSpaceOnUse"><stop offset="0" stop-color="#ff5652"/><stop offset="1" stop-color="#f4ce56"/></linearGradient><radialGradient id="radial-gradient" cx="343.54" cy="-108.9" r="162.48" gradientTransform="translate(-84.54 105) scale(0.46)" gradientUnits="userSpaceOnUse"><stop offset="0" stop-color="#ff3410"/><stop offset="1" stop-color="#f4ce56"/></radialGradient><linearGradient id="kj-logo-gradient-2" x1="39.02" y1="83.5" x2="136.08" y2="-13.37" gradientUnits="userSpaceOnUse"><stop offset="0" stop-color="#ff263f"/><stop offset="0.5" stop-color="#f027ee"/><stop offset="1" stop-color="#8a27eb"/></linearGradient><radialGradient id="radial-gradient-2" cx="-771.73" cy="936.48" r="203.71" gradientTransform="translate(-229.46 429) rotate(180) scale(0.46)" gradientUnits="userSpaceOnUse"><stop offset="0" stop-color="#f027ee"/><stop offset="1" stop-color="#f027ee" stop-opacity="0"/></radialGradient></defs><title>logo-circle</title><g id="Layer_2" data-name="Layer 2"><g id="Layer_1-2" data-name="Layer 1"><circle class="kj-logo-circle-cls-1" cx="54" cy="54" r="51.92"/><path class="kj-logo-circle-cls-2" d="M54,108A54,54,0,0,1,15.82,15.82l1.46,1.47-1.46-1.47A54,54,0,1,1,92.18,92.18,53.65,53.65,0,0,1,54,108ZM54,4.15a49.56,49.56,0,0,0-35.25,14.6h0a49.85,49.85,0,0,0,70.5,70.5A49.85,49.85,0,0,0,54,4.15Z"/><path class="kj-logo-circle-cls-3" d="M84.79,42V59.27A13.56,13.56,0,0,1,71.23,72.83H49.93a6.51,6.51,0,0,1-2.4-.44l-.36-.15-.28-.13-.47-.26a7.24,7.24,0,0,1-1.28-1h0l-1.78-1.78L33.09,58.8a6.78,6.78,0,0,1,0-9.59l2.13-2.14L45.57,36.72a5.32,5.32,0,0,1,7.53,0h0a5.32,5.32,0,0,1,0,7.53L45,52.4a2.25,2.25,0,0,0,0,3.2l6.52,6.53a2.29,2.29,0,0,0,1.6.66H68.58A6.78,6.78,0,0,0,75.36,56V47.47a2.26,2.26,0,0,0-2.26-2.26H62.4a5,5,0,0,1-5-5h0a5,5,0,0,1,5-5H78l.27,0A6.78,6.78,0,0,1,84.79,42ZM28.54,35.16h0a5.33,5.33,0,0,0-5.33,5.33V42.4a5.33,5.33,0,0,0,5.33,5.33h0a5.33,5.33,0,0,0,5.32-5.33V40.49A5.33,5.33,0,0,0,28.54,35.16Zm0,37.68h0a5.33,5.33,0,0,0,5.32-5.33V65.6a5.32,5.32,0,0,0-5.32-5.32h0a5.33,5.33,0,0,0-5.33,5.32v1.91A5.33,5.33,0,0,0,28.54,72.84Z"/><path class="kj-logo-circle-cls-4" d="M67,45.21H73.1a2.26,2.26,0,0,1,2.26,2.26V56a6.78,6.78,0,0,1-6.78,6.78H56.87a13.2,13.2,0,0,1-13.51,6.28l1.78,1.78a6.78,6.78,0,0,0,4.79,2h21.3A13.56,13.56,0,0,0,84.79,59.27V42a6.78,6.78,0,0,0-6.51-6.77l-.27,0H62.4a5,5,0,0,0-5,5h0a5,5,0,0,0,5,5Z"/><path class="kj-logo-circle-cls-5" d="M43.36,69.07l1.78,1.78a6.79,6.79,0,0,0,4.29,2,13.18,13.18,0,0,0,7.73-6.37,13.53,13.53,0,0,0,1.15-3.07l.14-.58H56.87A13.2,13.2,0,0,1,43.36,69.07Z"/><path class="kj-logo-circle-cls-6" d="M54,108A53.65,53.65,0,0,1,15.82,92.18h0A54,54,0,1,1,92.18,15.82,54,54,0,0,1,54,108ZM54,4.15a49.85,49.85,0,0,0-35.25,85.1h0a49.85,49.85,0,0,0,70.5-70.5A49.56,49.56,0,0,0,54,4.15Z"/></g></g></svg>