<?xml version="1.0" encoding="utf-8"?>
<!-- Generator: Adobe Illustrator 25.2.1, SVG Export Plug-In . SVG Version: 6.00 Build 0)  -->
<svg version="1.1" id="Layer_1" xmlns="http://www.w3.org/2000/svg" xmlns:xlink="http://www.w3.org/1999/xlink" x="0px" y="0px"
	 viewBox="0 0 107.8 107.8" style="enable-background:new 0 0 107.8 107.8;" xml:space="preserve">
<style type="text/css">
	.st0{fill:#FFFFFF;}
	.st1{fill:#F4CE56;}
	.st2{fill:url(#SVGID_1_);}
	.st3{fill:url(#SVGID_2_);}
	.st4{fill:url(#SVGID_3_);}
	.st5{fill:url(#SVGID_4_);}
	.st6{fill:#B1052E;}
</style>
<g id="Layer_2_1_">
	<g id="Layer_1-2">
		<circle class="st0" cx="53.9" cy="53.9" r="51.9"/>
		<path class="st1" d="M53.9,107.8C24.1,107.7,0,83.6,0,53.9S24.1,0,53.9,0s53.9,24.1,53.9,53.9c0,14.3-5.7,28-15.8,38.1
			C81.9,102.1,68.2,107.8,53.9,107.8z M53.9,4C26.3,4,4,26.3,4,53.9c0,27.6,22.4,49.9,49.9,49.9c27.6,0,49.9-22.4,49.9-49.9
			c0-13.2-5.3-25.9-14.6-35.3C79.8,9.2,67.1,3.9,53.9,4z"/>
		
			<radialGradient id="SVGID_1_" cx="90.0078" cy="18.26" r="101.41" gradientTransform="matrix(1 0 0 -1 0 109.94)" gradientUnits="userSpaceOnUse">
			<stop  offset="0" style="stop-color:#FF5652"/>
			<stop  offset="1" style="stop-color:#FF5652;stop-opacity:0"/>
		</radialGradient>
		<path class="st2" d="M53.9,107.8C24.1,107.7,0,83.6,0,53.9S24.1,0,53.9,0s53.9,24.1,53.9,53.9c0,14.3-5.7,28-15.8,38.1
			C81.9,102.1,68.2,107.8,53.9,107.8z M53.9,4C26.3,4,4,26.3,4,53.9c0,27.6,22.4,49.9,49.9,49.9c27.6,0,49.9-22.4,49.9-49.9
			c0-13.2-5.3-25.9-14.6-35.3C79.8,9.2,67.1,3.9,53.9,4z"/>
		
			<radialGradient id="SVGID_2_" cx="96.1378" cy="87.34" r="65.69" gradientTransform="matrix(1 0 0 -1 0 109.94)" gradientUnits="userSpaceOnUse">
			<stop  offset="0" style="stop-color:#F027EE"/>
			<stop  offset="1" style="stop-color:#F027EE;stop-opacity:0"/>
		</radialGradient>
		<path class="st3" d="M53.9,107.8C24.1,107.7,0,83.6,0,53.9S24.1,0,53.9,0s53.9,24.1,53.9,53.9c0,14.3-5.7,28-15.8,38.1
			C81.9,102.1,68.2,107.8,53.9,107.8z M53.9,4C26.3,4,4,26.3,4,53.9c0,27.6,22.4,49.9,49.9,49.9c27.6,0,49.9-22.4,49.9-49.9
			c0-13.2-5.3-25.9-14.6-35.3C79.8,9.2,67.1,3.9,53.9,4z"/>
		
			<radialGradient id="SVGID_3_" cx="865.7991" cy="-303.4213" r="162.48" gradientTransform="matrix(0.46 0 0 -0.46 -324.9136 -84.8038)" gradientUnits="userSpaceOnUse">
			<stop  offset="0" style="stop-color:#FF3410"/>
			<stop  offset="1" style="stop-color:#F4CE56"/>
		</radialGradient>
		<path class="st4" d="M84.6,41.8v17.3c0,7.5-6.1,13.6-13.6,13.6l0,0H49.8c-0.3,0-0.7,0-1-0.1c-0.5-0.1-0.9-0.2-1.4-0.4L47,72.1
			L46.7,72l-0.5-0.3c-0.5-0.3-0.9-0.6-1.3-1l0,0L43.2,69L32.9,58.7c-2.6-2.6-2.6-6.9,0-9.6c0,0,0,0,0,0l2.2-2.1l10.3-10.4
			c2.1-2.1,5.4-2.1,7.5,0c0,0,0,0,0,0l0,0c2.1,2.1,2.1,5.4,0,7.5c0,0,0,0,0,0l-8.2,8.2c-0.9,0.9-0.9,2.3,0,3.2l6.5,6.5
			c0.4,0.4,1,0.7,1.6,0.7h15.5c3.7,0,6.8-3,6.8-6.8v-8.5c0-1.2-1-2.3-2.3-2.3c0,0,0,0,0,0H62.3c-2.8,0-5-2.2-5-5l0,0
			c0-2.8,2.2-5,5-5h15.6h0.3C81.8,35.2,84.6,38.2,84.6,41.8z M28.4,35L28.4,35c-2.9,0-5.3,2.4-5.3,5.3v1.9c0,2.9,2.4,5.3,5.3,5.3
			l0,0c2.9,0,5.3-2.4,5.3-5.3v-1.9C33.7,37.4,31.3,35,28.4,35z M28.4,72.7L28.4,72.7c2.9,0,5.3-2.4,5.3-5.3v-1.9
			c0-2.9-2.4-5.3-5.3-5.3l0,0c-2.9,0-5.3,2.4-5.3,5.3v1.9C23.1,70.3,25.5,72.7,28.4,72.7C28.4,72.7,28.4,72.7,28.4,72.7z"/>
		
			<linearGradient id="SVGID_4_" gradientUnits="userSpaceOnUse" x1="38.8966" y1="26.5512" x2="135.9566" y2="123.4212" gradientTransform="matrix(1 0 0 -1 0 109.94)">
			<stop  offset="0" style="stop-color:#FF263F"/>
			<stop  offset="0.5" style="stop-color:#F027EE"/>
			<stop  offset="1" style="stop-color:#8A27EB"/>
		</linearGradient>
		<path class="st5" d="M66.8,45.1h6.1c1.2,0,2.3,1,2.3,2.3l0,0v8.5c0,3.7-3,6.8-6.8,6.8H56.7c-2.8,4.7-8.1,7.2-13.5,6.3l1.8,1.8
			c1.3,1.3,3,2,4.8,2h21.3c7.5,0,13.6-6.1,13.6-13.6c0,0,0,0,0-0.1V41.8c0-3.6-2.9-6.6-6.5-6.8h-0.3H62.3c-2.8,0-5,2.2-5,5l0,0
			c0,2.8,2.2,5,5,5L66.8,45.1z"/>
		<path class="st6" d="M43.2,69l1.8,1.8c1.1,1.2,2.7,1.9,4.3,2c3.3-1,6.1-3.3,7.7-6.4c0.5-1,0.9-2,1.2-3.1l0.1-0.6h-1.6
			C53.9,67.4,48.6,69.9,43.2,69z"/>
	</g>
</g>
</svg>
